HIERARCHY
ROOT Hips
{
    OFFSET 0.000000 0.000000 0.000000
    CHANNELS 6 Xposition Yposition Zposition Zrotation Yrotation Xrotation
    JOINT Chest
    {
        OFFSET 0.000000 1.634758 -0.000000
        CHANNELS 3 Zrotation Yrotation Xrotation
        JOINT Chest2
        {
            OFFSET 0.000000 2.197341 0.000000
            CHANNELS 3 Zrotation Yrotation Xrotation
            JOINT Neck
            {
                OFFSET 0.000000 0.961544 0.000000
                CHANNELS 3 Zrotation Yrotation Xrotation
                JOINT Head
                {
                    OFFSET 0.000000 0.632542 -0.032565
                    CHANNELS 3 Zrotation Yrotation Xrotation
                    End Site
                    {
                        OFFSET -0.000001 0.439502 2.922845
                    }
                }
            }
            JOINT LeftCollar
            {
                OFFSET 0.167536 0.778237 -0.168280
                CHANNELS 3 Zrotation Yrotation Xrotation
                JOINT LeftShoulder
                {
                    OFFSET 0.831514 -0.002900 0.006458
                    CHANNELS 3 Zrotation Yrotation Xrotation
                    JOINT LeftElbow
                    {
                        OFFSET 2.272872 -0.026639 0.059314
                        CHANNELS 3 Zrotation Yrotation Xrotation
                        JOINT LeftWrist
                        {
                            OFFSET 2.081982 -0.024402 0.054333
                            CHANNELS 3 Zrotation Yrotation Xrotation
                            JOINT LeftHandThumb1
                            {
                                OFFSET 0.218903 -0.128645 0.283837
                                CHANNELS 3 Zrotation Yrotation Xrotation
                                JOINT LeftHandThumb2
                                {
                                    OFFSET 0.137157 -0.025101 0.077902
                                    CHANNELS 3 Zrotation Yrotation Xrotation
                                    JOINT LeftHandThumb3
                                    {
                                        OFFSET 0.121826 -0.131521 -0.037416
                                        CHANNELS 3 Zrotation Yrotation Xrotation
                                        End Site
                                        {
                                            OFFSET 0.151948 -0.220009 0.018552
                                        }
                                    }
                                }
                            }
                            JOINT LeftHandFore1
                            {
                                OFFSET 0.767340 -0.016076 0.196678
                                CHANNELS 3 Zrotation Yrotation Xrotation
                                JOINT LeftHandFore2
                                {
                                    OFFSET 0.054289 -0.207906 0.028691
                                    CHANNELS 3 Zrotation Yrotation Xrotation
                                    JOINT LeftHandFore3
                                    {
                                        OFFSET -0.123510 -0.038522 0.004932
                                        CHANNELS 3 Zrotation Yrotation Xrotation
                                        End Site
                                        {
                                            OFFSET -0.042538 0.187829 0.016660
                                        }
                                    }
                                }
                            }
                            JOINT LeftHandMiddle1
                            {
                                OFFSET 0.709887 -0.008320 0.018526
                                CHANNELS 3 Zrotation Yrotation Xrotation
                                JOINT LeftHandMiddle2
                                {
                                    OFFSET 0.045535 -0.240631 0.009332
                                    CHANNELS 3 Zrotation Yrotation Xrotation
                                    JOINT LeftHandMiddle3
                                    {
                                        OFFSET -0.141992 -0.034752 -0.003704
                                        CHANNELS 3 Zrotation Yrotation Xrotation
                                        End Site
                                        {
                                            OFFSET -0.039594 0.232487 -0.003515
                                        }
                                    }
                                }
                            }
                            JOINT LeftHandRing1
                            {
                                OFFSET 0.743817 -0.005823 -0.153668
                                CHANNELS 3 Zrotation Yrotation Xrotation
                                JOINT LeftHandRing2
                                {
                                    OFFSET 0.091970 -0.340397 0.020119
                                    CHANNELS 3 Zrotation Yrotation Xrotation
                                    JOINT LeftHandRing3
                                    {
                                        OFFSET -0.129426 -0.031032 -0.029860
                                        CHANNELS 3 Zrotation Yrotation Xrotation
                                        End Site
                                        {
                                            OFFSET -0.048635 0.105254 -0.031241
                                        }
                                    }
                                }
                            }
                            JOINT LeftHandLittle1
                            {
                                OFFSET 0.689408 -0.053302 -0.308304
                                CHANNELS 3 Zrotation Yrotation Xrotation
                                JOINT LeftHandLittle2
                                {
                                    OFFSET 0.087163 -0.174025 0.013123
                                    CHANNELS 3 Zrotation Yrotation Xrotation
                                    JOINT LeftHandLittle3
                                    {
                                        OFFSET -0.095129 -0.048943 -0.055239
                                        CHANNELS 3 Zrotation Yrotation Xrotation
                                        End Site
                                        {
                                            OFFSET -0.100912 0.145246 -0.070776
                                        }
                                    }
                                }
                            }
                        }
                    }
                }
            }
            JOINT RightCollar
            {
                OFFSET -0.167536 0.778237 -0.168280
                CHANNELS 3 Zrotation Yrotation Xrotation
                JOINT RightShoulder
                {
                    OFFSET -0.831514 -0.002900 0.006457
                    CHANNELS 3 Zrotation Yrotation Xrotation
                    JOINT RightElbow
                    {
                        OFFSET -2.272872 -0.026639 0.059313
                        CHANNELS 3 Zrotation Yrotation Xrotation
                        JOINT RightWrist
                        {
                            OFFSET -2.081982 -0.024402 0.054331
                            CHANNELS 3 Zrotation Yrotation Xrotation
                            JOINT RightHandThumb1
                            {
                                OFFSET -0.218911 -0.128571 0.283837
                                CHANNELS 3 Zrotation Yrotation Xrotation
                                JOINT RightHandThumb2
                                {
                                    OFFSET -0.137157 -0.025101 0.077902
                                    CHANNELS 3 Zrotation Yrotation Xrotation
                                    JOINT RightHandThumb3
                                    {
                                        OFFSET -0.146167 -0.088191 -0.066310
                                        CHANNELS 3 Zrotation Yrotation Xrotation
                                        End Site
                                        {
                                            OFFSET -0.245759 -0.052945 -0.092927
                                        }
                                    }
                                }
                            }
                            JOINT RightHandFore1
                            {
                                OFFSET -0.767344 -0.015991 0.196679
                                CHANNELS 3 Zrotation Yrotation Xrotation
                                JOINT RightHandFore2
                                {
                                    OFFSET -0.054325 -0.207908 0.028637
                                    CHANNELS 3 Zrotation Yrotation Xrotation
                                    JOINT RightHandFore3
                                    {
                                        OFFSET 0.052812 -0.004483 0.118122
                                        CHANNELS 3 Zrotation Yrotation Xrotation
                                        End Site
                                        {
                                            OFFSET 0.081898 0.168862 -0.046315
                                        }
                                    }
                                }
                            }
                            JOINT RightHandMiddle1
                            {
                                OFFSET -0.709887 -0.008302 0.018525
                                CHANNELS 3 Zrotation Yrotation Xrotation
                                JOINT RightHandMiddle2
                                {
                                    OFFSET -0.045512 -0.240632 0.009322
                                    CHANNELS 3 Zrotation Yrotation Xrotation
                                    JOINT RightHandMiddle3
                                    {
                                        OFFSET 0.127491 -0.034291 -0.062886
                                        CHANNELS 3 Zrotation Yrotation Xrotation
                                        End Site
                                        {
                                            OFFSET 0.037558 0.232550 -0.011853
                                        }
                                    }
                                }
                            }
                            JOINT RightHandRing1
                            {
                                OFFSET -0.743819 -0.005785 -0.153669
                                CHANNELS 3 Zrotation Yrotation Xrotation
                                JOINT RightHandRing2
                                {
                                    OFFSET -0.091994 -0.340390 0.020126
                                    CHANNELS 3 Zrotation Yrotation Xrotation
                                    JOINT RightHandRing3
                                    {
                                        OFFSET 0.132546 -0.030664 -0.009810
                                        CHANNELS 3 Zrotation Yrotation Xrotation
                                        End Site
                                        {
                                            OFFSET 0.055260 0.105994 0.011483
                                        }
                                    }
                                }
                            }
                            JOINT RightHandLittle1
                            {
                                OFFSET -0.689403 -0.053298 -0.308303
                                CHANNELS 3 Zrotation Yrotation Xrotation
                                JOINT RightHandLittle2
                                {
                                    OFFSET -0.087170 -0.174025 0.013124
                                    CHANNELS 3 Zrotation Yrotation Xrotation
                                    JOINT RightHandLittle3
                                    {
                                        OFFSET 0.108484 -0.051903 -0.005729
                                        CHANNELS 3 Zrotation Yrotation Xrotation
                                        End Site
                                        {
                                            OFFSET 0.127077 0.139457 0.026301
                                        }
                                    }
                                }
                            }
                        }
                    }
                }
            }
        }
    }
    JOINT LeftHip
    {
        OFFSET 0.685143 0.673822 -0.044491
        CHANNELS 3 Zrotation Yrotation Xrotation
        JOINT LeftKnee
        {
            OFFSET 0.085364 -3.750208 0.017676
            CHANNELS 3 Zrotation Yrotation Xrotation
            JOINT LeftAnkle
            {
                OFFSET 0.094583 -4.155206 0.019585
                CHANNELS 3 Zrotation Yrotation Xrotation
                JOINT LeftToe
                {
                    OFFSET -0.000000 -0.395925 0.621478
                    CHANNELS 3 Zrotation Yrotation Xrotation
                    End Site
                    {
                        OFFSET -0.000000 -0.077878 0.321152
                    }
                }
            }
        }
    }
    JOINT RightHip
    {
        OFFSET -0.685143 0.673822 -0.044492
        CHANNELS 3 Zrotation Yrotation Xrotation
        JOINT RightKnee
        {
            OFFSET -0.085364 -3.750208 0.017677
            CHANNELS 3 Zrotation Yrotation Xrotation
            JOINT RightAnkle
            {
                OFFSET -0.094583 -4.155206 0.019585
                CHANNELS 3 Zrotation Yrotation Xrotation
                JOINT RightToe
                {
                    OFFSET -0.000000 -0.395925 0.621478
                    CHANNELS 3 Zrotation Yrotation Xrotation
                    End Site
                    {
                        OFFSET -0.000000 -0.077878 0.321152
                    }
                }
            }
        }
    }
}
MOTION
Frames: 7
Frame Time: 0.033333
-0.282695 8.459282 0.007800 175.346222 -0.000011 180.000000 -4.580745 0.363340 1.654154 0.003590 -0.056389 -3.645261 0.000003 0.056501 4.684106 0.000005 -0.000009 11.067137 -15.149846 5.357834 0.003728 -69.876633 25.142540 -7.857294 0.026478 -16.137596 -0.194124 -2.529845 8.537903 18.377062 0.000001 0.000002 0.000001 -0.000000 -0.000000 0.000000 -0.000004 -0.000000 0.000002 -0.000001 -0.000003 0.000000 -0.000002 0.000002 0.000002 0.000001 -0.000002 -0.000001 -0.000001 0.000002 0.000000 -0.000000 0.000003 0.000005 -0.000000 0.000003 -0.000001 -0.000001 -0.000000 -0.000000 0.000003 -0.000002 0.000003 0.000002 -0.000000 -0.000003 -0.000002 0.000002 -0.000000 0.000003 -0.000000 0.000001 -0.000003 0.000002 0.000003 6.768286 3.765812 -0.006288 37.643845 -9.972847 -20.004980 -0.487580 54.777607 -0.948383 -13.565485 8.877051 46.317062 0.000001 0.000005 0.000002 0.000001 -0.000003 -0.000001 -0.000001 -0.000000 -0.000002 -0.000001 -0.000000 -0.000001 -0.000003 -0.000002 -0.000001 0.000002 -0.000002 0.000000 -0.000000 -0.000002 -0.000001 0.000002 -0.000002 0.000001 -0.000001 -0.000000 0.000001 0.000001 0.000002 -0.000000 -0.000000 -0.000003 -0.000001 -0.000001 -0.000000 -0.000003 0.000001 0.000003 0.000000 -0.000002 -0.000002 -0.000001 0.000003 0.000002 -0.000004 4.469361 -0.232855 -10.284985 0.076696 0.440616 19.746105 1.133580 1.399493 -15.741524 -0.000001 -0.000000 0.000003 -21.007736 -0.042566 -6.727902 -0.031331 -0.284167 12.585038 2.342164 5.026892 -11.842144 0.000000 0.000000 0.000003
-0.453277 8.272244 0.023248 175.340118 -0.011635 -179.825897 -4.031434 0.822504 1.647531 0.445099 -0.161002 -3.253257 0.106995 0.057204 4.536891 0.012571 -0.244102 10.785933 -11.931351 0.431749 -0.037576 -35.504265 20.337658 38.591702 0.454788 -53.589008 -0.907869 8.443859 7.709229 -18.009613 -0.000006 0.000010 0.000002 -0.000011 0.000014 0.000010 -0.000006 -0.000002 -0.000003 -0.000022 0.000005 0.000002 0.000000 0.000007 -0.000002 0.000000 0.000002 0.000001 0.000003 0.000005 0.000000 -0.000003 0.000002 0.000008 0.000009 0.000007 0.000004 -0.000003 -0.000003 0.000003 0.000012 -0.000003 0.000002 0.000001 0.000005 -0.000005 0.000003 0.000009 0.000001 0.000003 -0.000000 0.000001 -0.000000 -0.000002 -0.000002 9.921267 2.465562 0.024102 37.438995 -4.337059 0.097010 -0.074742 26.145126 -0.329173 -26.848360 -4.523892 7.281002 -0.000001 0.000009 -0.000003 -0.000001 -0.000000 0.000000 -0.000001 -0.000000 -0.000004 0.000016 0.000009 0.000008 -0.000005 0.000002 0.000001 -0.000003 -0.000000 -0.000003 0.000006 0.000014 0.000012 0.000003 0.000003 -0.000000 -0.000004 0.000005 -0.000008 0.000004 0.000007 0.000009 -0.000025 -0.000003 -0.000008 -0.000006 -0.000007 -0.000001 0.000011 0.000014 0.000008 -0.000005 -0.000002 -0.000000 0.000002 -0.000000 -0.000000 3.496009 -0.411286 -17.757227 0.215022 0.717325 33.370132 1.167249 1.844053 -22.079012 -0.000001 -0.000002 0.000002 -22.643301 -1.218314 -12.640569 -0.106078 -0.515226 23.269793 3.481987 6.778183 -16.833433 -0.000003 -0.000008 0.000006
-0.770208 7.905973 0.064955 175.323456 -0.043507 -179.348480 -2.984016 1.704682 1.656720 1.180629 -0.372402 -2.305215 0.406242 0.046922 4.100294 0.036315 -0.705260 9.951920 -7.685774 -1.386256 -0.062426 -8.246616 18.206558 51.511631 166.821945 -86.915092 -167.514740 25.660530 5.180228 -26.292225 -0.000004 0.000002 -0.000006 -0.000006 0.000005 0.000009 -0.000005 0.000003 -0.000003 -0.000009 0.000003 -0.000013 0.000024 -0.000000 0.000016 -0.000001 -0.000000 0.000003 0.000021 0.000003 -0.000006 0.000003 0.000002 0.000010 0.000019 0.000007 -0.000008 -0.000003 -0.000002 -0.000008 0.000009 -0.000002 0.000003 0.000002 0.000003 0.000004 0.000008 0.000002 -0.000007 0.000019 0.000003 -0.000006 -0.000005 0.000007 0.000002 11.446204 0.607434 0.082577 43.337215 -10.642441 0.792613 -0.063931 24.353743 -0.303567 -22.101017 -12.429716 -4.494744 -0.000004 0.000007 0.000002 0.000005 -0.000009 0.000002 -0.000003 0.000000 -0.000002 0.000012 0.000007 0.000009 -0.000024 -0.000006 0.000015 0.000005 -0.000001 -0.000001 -0.000014 0.000007 0.000007 0.000003 -0.000001 0.000002 -0.000017 0.000009 -0.000009 -0.000002 0.000004 0.000005 -0.000039 -0.000001 -0.000008 -0.000002 -0.000001 -0.000001 -0.000010 0.000011 0.000009 -0.000031 0.000006 -0.000004 0.000002 0.000001 -0.000003 1.556109 -0.654263 -27.498396 0.469875 1.002319 50.230045 0.860225 2.812395 -29.710537 0.000000 -0.000002 0.000000 -25.805086 -4.182390 -19.727940 -0.239155 -0.752735 35.253418 5.692914 10.716350 -22.043390 -0.000002 -0.000000 0.000002
-0.941251 7.652789 0.125966 175.298523 -0.091129 -178.635162 -2.339172 2.247592 1.728776 1.322477 -0.497341 -1.091916 0.862901 0.004941 3.372355 0.050371 -0.978256 8.565748 -5.075261 -2.921380 -0.058316 3.533266 13.535768 44.789673 176.033127 -78.301857 -176.777283 34.616528 3.884457 -14.735847 -0.000011 0.000001 -0.000005 -0.000017 0.000018 0.000021 -0.000012 -0.000002 -0.000001 -0.000015 0.000018 0.000008 0.000020 0.000004 0.000017 0.000007 -0.000007 -0.000001 0.000008 -0.000000 0.000004 -0.000002 -0.000001 0.000001 0.000037 0.000031 -0.000014 -0.000012 -0.000009 0.000004 0.000048 0.000002 -0.000011 -0.000020 0.000008 0.000003 -0.000003 0.000001 0.000005 0.000019 0.000004 -0.000001 -0.000001 -0.000000 -0.000003 12.525199 0.236039 0.114254 47.288349 -2.911383 0.472279 -0.002031 4.772649 -0.056047 -17.774904 -21.825644 -13.085570 0.000002 0.000009 0.000003 0.000002 -0.000005 0.000002 -0.000001 -0.000000 -0.000001 0.000024 -0.000009 -0.000004 -0.000025 -0.000005 0.000006 -0.000008 -0.000002 0.000000 -0.000011 0.000002 -0.000006 0.000014 -0.000003 0.000000 -0.000066 0.000046 -0.000008 -0.000002 0.000002 -0.000009 -0.000048 0.000002 -0.000008 0.000000 0.000005 0.000002 -0.000014 0.000009 -0.000003 -0.000033 0.000007 -0.000005 0.000005 -0.000000 -0.000001 0.481843 -0.831202 -33.436893 0.633928 1.118652 59.076191 -0.603823 3.380565 -33.379189 -0.000001 -0.000006 0.000001 -27.593891 -7.808364 -24.088905 -0.325793 -0.862333 41.394791 6.821177 14.598119 -24.176292 0.000001 0.000001 0.000001
-0.926387 7.553840 0.199321 175.267731 -0.149999 -177.753342 -0.522247 2.272743 1.900790 2.488138 -0.676903 0.005248 1.430715 0.208178 2.463918 0.045598 -0.885573 6.832045 -6.661607 -3.030851 -0.091589 -6.511193 11.022260 42.585777 7.413036 -85.246536 -8.060476 41.504021 11.769603 -26.238844 -0.000002 -0.000003 -0.000000 -0.000022 0.000024 0.000016 -0.000008 -0.000002 0.000002 -0.000035 0.000002 -0.000004 0.000029 0.000020 0.000012 0.000005 -0.000005 -0.000006 0.000035 -0.000005 0.000003 -0.000000 -0.000000 0.000002 0.000052 0.000041 -0.000026 -0.000033 -0.000015 -0.000003 0.000049 0.000003 -0.000007 -0.000021 0.000003 0.000001 0.000006 -0.000003 0.000001 0.000006 0.000002 0.000000 -0.000004 0.000005 -0.000003 12.011647 0.338241 0.141945 47.092384 -16.216368 0.620139 -0.120940 32.338722 -0.424430 -19.313229 -30.742474 -20.166800 -0.000003 0.000002 0.000010 0.000000 -0.000007 0.000005 -0.000005 -0.000005 -0.000002 0.000036 -0.000009 0.000012 -0.000041 -0.000010 0.000027 0.000000 -0.000002 0.000002 0.000000 0.000009 0.000017 0.000017 -0.000003 0.000002 -0.000085 0.000061 -0.000019 0.000032 0.000002 0.000010 -0.000047 -0.000005 -0.000003 0.000006 -0.000000 0.000002 -0.000010 0.000007 0.000017 -0.000032 0.000007 -0.000005 0.000002 -0.000000 -0.000002 0.741436 -0.968899 -36.575268 0.694738 1.152895 62.143246 -2.797858 3.324004 -34.207092 0.000000 -0.000004 0.000000 -27.482660 -10.852363 -27.011570 -0.371407 -0.911476 44.341457 6.637448 17.085560 -24.895540 -0.000003 -0.000004 0.000002
-0.884518 7.455436 0.278055 175.233398 -0.215619 -176.770401 1.390592 0.952353 2.212942 3.620770 -0.661210 0.766293 2.051517 0.587822 1.598694 0.002383 -0.046328 5.184131 -10.138474 -2.248570 -0.117928 -32.391125 14.488273 26.118135 0.736954 -61.674709 -1.241705 40.964760 9.336618 -15.178176 -0.000012 0.000003 -0.000001 -0.000020 0.000017 0.000018 -0.000011 -0.000005 0.000004 -0.000048 0.000010 -0.000002 0.000026 0.000017 0.000014 0.000008 -0.000002 -0.000003 0.000035 0.000002 -0.000006 -0.000001 -0.000002 0.000007 0.000085 0.000067 -0.000033 -0.000061 -0.000003 -0.000003 0.000055 -0.000000 -0.000004 -0.000017 0.000012 -0.000003 0.000006 0.000010 -0.000002 0.000003 -0.000003 0.000001 -0.000005 -0.000002 0.000006 11.555559 0.388911 0.123455 47.278633 -22.261719 0.810243 -0.290329 45.940777 -0.692269 -21.976593 -38.261082 -26.077654 -0.000009 -0.000007 0.000002 -0.000002 -0.000012 0.000007 -0.000006 -0.000003 0.000003 0.000039 -0.000015 0.000000 -0.000027 -0.000009 0.000026 -0.000004 -0.000003 -0.000002 -0.000018 -0.000005 0.000003 0.000010 -0.000003 0.000002 -0.000107 0.000075 -0.000017 0.000017 -0.000000 0.000007 -0.000073 0.000003 -0.000015 0.000007 -0.000002 0.000003 -0.000020 -0.000002 0.000007 -0.000036 0.000009 -0.000012 0.000000 0.000002 -0.000002 1.252054 -1.120826 -39.782482 0.753416 1.182037 65.022476 -4.104450 3.126727 -34.873775 -0.000000 0.000002 -0.000002 -27.213747 -12.067134 -30.368578 -0.429906 -0.967716 47.907635 6.661476 17.829813 -25.932661 0.000001 0.000005 0.000002
-0.821802 7.357581 0.355206 175.197876 -0.283488 -175.753784 1.607395 -1.595050 2.831474 2.929062 -0.155499 0.620660 2.694880 0.345551 2.554245 -0.021538 0.418409 7.019767 -12.925646 -1.562598 -0.033556 -50.968475 7.237741 3.907270 0.085698 -27.804319 -0.353596 43.373371 -1.006559 -7.367067 -0.000009 0.000014 0.000004 14.332881 -9.037559 -11.344567 6.703967 5.622995 3.448567 27.516712 -16.331181 2.867835 30.844404 15.373468 8.571356 40.513145 11.875075 -1.022064 27.512007 7.143452 -2.568526 36.082230 -0.706875 11.997087 28.449020 22.231655 -20.422009 24.904682 4.367184 2.617093 38.482143 6.040666 4.710886 28.933287 -2.005173 -5.813424 20.438225 8.887383 4.275743 37.473133 11.169949 0.292856 29.966196 -2.039521 -14.268283 12.044183 0.086653 0.025932 49.848656 -21.543221 0.992668 -0.286610 45.724239 -0.687058 -25.095499 -43.247505 -32.033070 -0.000007 -0.000007 0.000003 -6.684766 17.649490 -6.899396 8.945180 2.240897 -0.888773 -27.516001 16.332392 2.864069 -19.675838 6.808928 26.368826 -15.017817 -0.292445 39.654854 -27.511993 -7.143410 -2.569270 -26.278492 -2.713236 -26.991102 -39.715599 18.375729 1.484087 -24.904713 -4.367056 2.617327 -36.239388 1.448431 -14.972514 -28.796070 -5.164045 -2.546047 -20.438208 -8.887448 4.275718 -34.527569 9.724476 -19.023891 -32.661236 -2.827275 -2.666680 1.974689 -1.281388 -42.946781 0.809999 1.206775 67.736420 -4.515064 2.841744 -35.471107 -0.000000 0.000000 0.000001 -22.178127 2.347840 -48.096474 -1.028067 -1.274480 77.784729 6.940346 2.608475 -37.550285 0.000000 0.000001 -0.000000
